Jinko-Bold.ufo
<glyph name="quotedbl" format="1">
  <advance width="896"/>
  <unicode hex="0022"/>
  <outline>
    <contour>
      <point x="155" y="964" type="line" smooth="no"/>
      <point x="108" y="1481" type="line" smooth="no"/>
      <point x="398" y="1481" type="line" smooth="no"/>
      <point x="353" y="964" type="line" smooth="no"/>
    </contour>
    <contour>
      <point x="547" y="964" type="line" smooth="no"/>
      <point x="502" y="1481" type="line" smooth="no"/>
      <point x="791" y="1481" type="line" smooth="no"/>
      <point x="745" y="964" type="line" smooth="no"/>
    </contour>
  </outline>
</glyph>
<glyph name="numbersign" format="1">
  <advance width="1444"/>
  <unicode hex="0023"/>
  <outline>
    <contour>
      <point x="215" y="10" type="line" smooth="no"/>
      <point x="295" y="387" type="line" smooth="no"/>
      <point x="58" y="387" type="line" smooth="no"/>
      <point x="58" y="583" type="line" smooth="no"/>
      <point x="338" y="583" type="line" smooth="no"/>
      <point x="418" y="918" type="line" smooth="no"/>
      <point x="157" y="918" type="line" smooth="no"/>
      <point x="157" y="1111" type="line" smooth="no"/>
      <point x="461" y="1111" type="line" smooth="no"/>
      <point x="537" y="1467" type="line" smooth="no"/>
      <point x="762" y="1467" type="line" smooth="no"/>
      <point x="688" y="1111" type="line" smooth="no"/>
      <point x="942" y="1111" type="line" smooth="no"/>
      <point x="1018" y="1467" type="line" smooth="no"/>
      <point x="1243" y="1467" type="line" smooth="no"/>
      <point x="1166" y="1111" type="line" smooth="no"/>
      <point x="1389" y="1111" type="line" smooth="no"/>
      <point x="1389" y="918" type="line" smooth="no"/>
      <point x="1121" y="918" type="line" smooth="no"/>
      <point x="1042" y="583" type="line" smooth="no"/>
      <point x="1294" y="583" type="line" smooth="no"/>
      <point x="1294" y="387" type="line" smooth="no"/>
      <point x="1000" y="387" type="line" smooth="no"/>
      <point x="918" y="10" type="line" smooth="no"/>
      <point x="696" y="10" type="line" smooth="no"/>
      <point x="776" y="387" type="line" smooth="no"/>
      <point x="519" y="387" type="line" smooth="no"/>
      <point x="437" y="10" type="line" smooth="no"/>
    </contour>
    <contour>
      <point x="563" y="581" type="line" smooth="no"/>
      <point x="822" y="581" type="line" smooth="no"/>
      <point x="900" y="921" type="line" smooth="no"/>
      <point x="642" y="921" type="line" smooth="no"/>
    </contour>
  </outline>
</glyph>
<glyph name="percent" format="1">
  <advance width="2064"/>
  <unicode hex="0025"/>
  <outline>
    <contour>
      <point x="460" y="848" type="curve" smooth="yes"/>
      <point x="550" y="848"/>
      <point x="601" y="964"/>
      <point x="601" y="1076" type="curve" smooth="yes"/>
      <point x="601" y="1181"/>
      <point x="555" y="1285"/>
      <point x="460" y="1285" type="curve" smooth="yes"/>
      <point x="367" y="1285"/>
      <point x="316" y="1171"/>
      <point x="316" y="1060" type="curve" smooth="yes"/>
      <point x="316" y="954"/>
      <point x="362" y="848"/>
    </contour>
    <contour>
      <point x="460" y="651" type="curve" smooth="yes"/>
      <point x="205" y="651"/>
      <point x="77" y="856"/>
      <point x="77" y="1063" type="curve" smooth="yes"/>
      <point x="77" y="1272"/>
      <point x="204" y="1481"/>
      <point x="460" y="1481" type="curve" smooth="yes"/>
      <point x="714" y="1481"/>
      <point x="837" y="1280"/>
      <point x="837" y="1074" type="curve" smooth="yes"/>
      <point x="837" y="863"/>
      <point x="707" y="651"/>
    </contour>
    <contour>
      <point x="525" y="0" type="line" smooth="no"/>
      <point x="1288" y="1481" type="line" smooth="no"/>
      <point x="1541" y="1481" type="line" smooth="no"/>
      <point x="777" y="0" type="line" smooth="no"/>
    </contour>
    <contour>
      <point x="1607" y="196" type="curve" smooth="yes"/>
      <point x="1699" y="196"/>
      <point x="1746" y="308"/>
      <point x="1746" y="418" type="curve" smooth="yes"/>
      <point x="1746" y="527"/>
      <point x="1699" y="635"/>
      <point x="1603" y="635" type="curve" smooth="yes"/>
      <point x="1514" y="635"/>
      <point x="1465" y="517"/>
      <point x="1465" y="406" type="curve" smooth="yes"/>
      <point x="1465" y="300"/>
      <point x="1511" y="196"/>
    </contour>
    <contour>
      <point x="1607" y="-1" type="curve" smooth="yes"/>
      <point x="1352" y="-1"/>
      <point x="1224" y="204"/>
      <point x="1224" y="411" type="curve" smooth="yes"/>
      <point x="1224" y="620"/>
      <point x="1352" y="829"/>
      <point x="1607" y="829" type="curve" smooth="yes"/>
      <point x="1861" y="829"/>
      <point x="1983" y="629"/>
      <point x="1983" y="423" type="curve" smooth="yes"/>
      <point x="1983" y="213"/>
      <point x="1854" y="-1"/>
    </contour>
  </outline>
</glyph>
<glyph name="quotesingle" format="1">
  <advance width="514"/>
  <unicode hex="0027"/>
  <outline>
    <contour>
      <point x="156" y="850" type="line" smooth="no"/>
      <point x="114" y="1481" type="line" smooth="no"/>
      <point x="404" y="1481" type="line" smooth="no"/>
      <point x="350" y="850" type="line" smooth="no"/>
    </contour>
  </outline>
</glyph>
<glyph name="hyphen" format="1">
  <advance width="836"/>
  <unicode hex="002d"/>
  <outline>
    <contour>
      <point x="94" y="480" type="line" smooth="no"/>
      <point x="94" y="706" type="line" smooth="no"/>
      <point x="743" y="706" type="line" smooth="no"/>
      <point x="743" y="480" type="line" smooth="no"/>
    </contour>
  </outline>
</glyph>
<glyph name="one" format="1">
  <advance width="1088"/>
  <unicode hex="0031"/>
  <outline>
    <contour>
      <point x="175" y="0" type="line" smooth="no"/>
      <point x="175" y="248" type="line" smooth="no"/>
      <point x="432" y="248" type="line" smooth="no"/>
      <point x="432" y="1152" type="line" smooth="no"/>
      <point x="168" y="1093" type="line" smooth="no"/>
      <point x="168" y="1300" type="line" smooth="no"/>
      <point x="334" y="1323"/>
      <point x="408" y="1374"/>
      <point x="440" y="1482" type="curve" smooth="no"/>
      <point x="522" y="1481"/>
      <point x="683" y="1482"/>
      <point x="765" y="1482" type="curve" smooth="no"/>
      <point x="765" y="248" type="line" smooth="no"/>
      <point x="1013" y="248" type="line" smooth="no"/>
      <point x="1013" y="0" type="line" smooth="no"/>
    </contour>
  </outline>
</glyph>
<glyph name="two" format="1">
  <advance width="1222"/>
  <unicode hex="0032"/>
  <outline>
    <contour>
      <point x="106" y="0" type="line" smooth="no"/>
      <point x="106" y="218" type="line" smooth="no"/>
      <point x="333" y="413"/>
      <point x="775" y="812"/>
      <point x="775" y="1041" type="curve" smooth="yes"/>
      <point x="775" y="1197"/>
      <point x="681" y="1247"/>
      <point x="566" y="1247" type="curve" smooth="yes"/>
      <point x="433" y="1247"/>
      <point x="272" y="1180"/>
      <point x="198" y="1133" type="curve" smooth="no"/>
      <point x="130" y="1373" type="line" smooth="no"/>
      <point x="205" y="1439"/>
      <point x="436" y="1504"/>
      <point x="604" y="1504" type="curve" smooth="yes"/>
      <point x="942" y="1504"/>
      <point x="1116" y="1333"/>
      <point x="1116" y="1066" type="curve" smooth="yes"/>
      <point x="1116" y="770"/>
      <point x="795" y="465"/>
      <point x="540" y="254" type="curve" smooth="no"/>
      <point x="1151" y="254" type="line" smooth="no"/>
      <point x="1151" y="0" type="line" smooth="no"/>
    </contour>
  </outline>
</glyph>
<glyph name="seven" format="1">
  <advance width="1199"/>
  <unicode hex="0037"/>
  <outline>
    <contour>
      <point x="215" y="0" type="line" smooth="no"/>
      <point x="768" y="1239" type="line" smooth="no"/>
      <point x="319" y="1239" type="line" smooth="no"/>
      <point x="319" y="1087" type="line" smooth="no"/>
      <point x="99" y="1087" type="line" smooth="no"/>
      <point x="99" y="1481" type="line" smooth="no"/>
      <point x="1131" y="1481" type="line" smooth="no"/>
      <point x="1131" y="1242" type="line" smooth="no"/>
      <point x="590" y="0" type="line" smooth="no"/>
    </contour>
  </outline>
</glyph>
<glyph name="less" format="1">
  <advance width="1437"/>
  <unicode hex="003c"/>
  <outline>
    <contour>
      <point x="1321" y="-15" type="line" smooth="no"/>
      <point x="101" y="471" type="line" smooth="no"/>
      <point x="101" y="678" type="line" smooth="no"/>
      <point x="1321" y="1163" type="line" smooth="no"/>
      <point x="1321" y="916" type="line" smooth="no"/>
      <point x="1321" y="916"/>
      <point x="493" y="601"/>
      <point x="427" y="580" type="curve" smooth="no"/>
      <point x="487" y="557"/>
      <point x="1321" y="234"/>
      <point x="1321" y="234" type="curve" smooth="no"/>
    </contour>
  </outline>
</glyph>
<glyph name="equal" format="1">
  <advance width="1452"/>
  <unicode hex="003d"/>
  <outline>
    <contour>
      <point x="148" y="228" type="line" smooth="no"/>
      <point x="148" y="458" type="line" smooth="no"/>
      <point x="1307" y="458" type="line" smooth="no"/>
      <point x="1307" y="228" type="line" smooth="no"/>
    </contour>
    <contour>
      <point x="148" y="693" type="line" smooth="no"/>
      <point x="148" y="923" type="line" smooth="no"/>
      <point x="1307" y="923" type="line" smooth="no"/>
      <point x="1307" y="693" type="line" smooth="no"/>
    </contour>
  </outline>
</glyph>
<glyph name="question" format="1">
  <advance width="1052"/>
  <unicode hex="003f"/>
  <outline>
    <contour>
      <point x="525" y="518" type="curve" smooth="no"/>
      <point x="359" y="535" type="line" smooth="no"/>
      <point x="507" y="718"/>
      <point x="642" y="895"/>
      <point x="642" y="1041" type="curve" smooth="yes"/>
      <point x="642" y="1182"/>
      <point x="546" y="1246"/>
      <point x="431" y="1246" type="curve" smooth="yes"/>
      <point x="300" y="1246"/>
      <point x="140" y="1162"/>
      <point x="87" y="1113" type="curve" smooth="no"/>
      <point x="87" y="1376" type="line" smooth="no"/>
      <point x="149" y="1412"/>
      <point x="300" y="1503"/>
      <point x="484" y="1503" type="curve" smooth="yes"/>
      <point x="790" y="1503"/>
      <point x="970" y="1337"/>
      <point x="970" y="1116" type="curve" smooth="yes"/>
      <point x="970" y="828"/>
      <point x="719" y="666"/>
    </contour>
    <contour>
      <point x="424" y="-19" type="curve" smooth="yes"/>
      <point x="311" y="-19"/>
      <point x="221" y="71"/>
      <point x="221" y="184" type="curve" smooth="yes"/>
      <point x="221" y="296"/>
      <point x="311" y="388"/>
      <point x="424" y="388" type="curve" smooth="yes"/>
      <point x="537" y="388"/>
      <point x="628" y="296"/>
      <point x="628" y="184" type="curve" smooth="yes"/>
      <point x="628" y="71"/>
      <point x="537" y="-19"/>
    </contour>
  </outline>
</glyph>
<glyph name="A" format="1">
  <advance width="1397"/>
  <unicode hex="0041"/>
  <outline>
    <contour>
      <point x="2" y="0" type="line" smooth="no"/>
      <point x="515" y="1481" type="line" smooth="no"/>
      <point x="879" y="1481" type="line" smooth="no"/>
      <point x="1395" y="0" type="line" smooth="no"/>
      <point x="1046" y="0" type="line" smooth="no"/>
      <point x="948" y="305" type="line" smooth="no"/>
      <point x="446" y="305" type="line" smooth="no"/>
      <point x="349" y="0" type="line" smooth="no"/>
    </contour>
    <contour>
      <point x="523" y="550" type="line" smooth="no"/>
      <point x="871" y="550" type="line" smooth="no"/>
      <point x="695" y="1117" type="line" smooth="no"/>
    </contour>
  </outline>
</glyph>
<glyph name="E" format="1">
  <advance width="1203"/>
  <unicode hex="0045"/>
  <outline>
    <contour>
      <point x="146" y="0" type="line" smooth="no"/>
      <point x="146" y="1481" type="line" smooth="no"/>
      <point x="1127" y="1481" type="line" smooth="no"/>
      <point x="1127" y="1233" type="line" smooth="no"/>
      <point x="488" y="1233" type="line" smooth="no"/>
      <point x="488" y="900" type="line" smooth="no"/>
      <point x="1042" y="900" type="line" smooth="no"/>
      <point x="1042" y="653" type="line" smooth="no"/>
      <point x="488" y="653" type="line" smooth="no"/>
      <point x="488" y="249" type="line" smooth="no"/>
      <point x="1126" y="249" type="line" smooth="no"/>
      <point x="1126" y="0" type="line" smooth="no"/>
    </contour>
  </outline>
</glyph>
<glyph name="G" format="1">
  <advance width="1473"/>
  <unicode hex="0047"/>
  <outline>
    <contour>
      <point x="824" y="-24" type="curve" smooth="yes"/>
      <point x="335" y="-24"/>
      <point x="99" y="269"/>
      <point x="99" y="741" type="curve" smooth="yes"/>
      <point x="99" y="1235"/>
      <point x="354" y="1504"/>
      <point x="831" y="1504" type="curve" smooth="yes"/>
      <point x="1088" y="1504"/>
      <point x="1218" y="1435"/>
      <point x="1341" y="1360" type="curve" smooth="no"/>
      <point x="1274" y="1112" type="line" smooth="no"/>
      <point x="1274" y="1115"/>
      <point x="1098" y="1247"/>
      <point x="880" y="1247" type="curve" smooth="yes"/>
      <point x="578" y="1247"/>
      <point x="448" y="1077"/>
      <point x="448" y="746" type="curve" smooth="yes"/>
      <point x="448" y="407"/>
      <point x="570" y="233"/>
      <point x="851" y="233" type="curve" smooth="yes"/>
      <point x="990" y="233"/>
      <point x="1099" y="267"/>
      <point x="1100" y="266" type="curve" smooth="no"/>
      <point x="1100" y="595" type="line" smooth="no"/>
      <point x="754" y="595" type="line" smooth="no"/>
      <point x="754" y="831" type="line" smooth="no"/>
      <point x="1367" y="831" type="line" smooth="no"/>
      <point x="1367" y="132" type="line" smooth="no"/>
      <point x="1278" y="51"/>
      <point x="1051" y="-24"/>
    </contour>
  </outline>
</glyph>
<glyph name="H" format="1">
  <advance width="1512"/>
  <unicode hex="0048"/>
  <outline>
    <contour>
      <point x="146" y="0" type="line" smooth="no"/>
      <point x="146" y="1481" type="line" smooth="no"/>
      <point x="489" y="1481" type="line" smooth="no"/>
      <point x="489" y="894" type="line" smooth="no"/>
      <point x="1023" y="894" type="line" smooth="no"/>
      <point x="1023" y="1481" type="line" smooth="no"/>
      <point x="1367" y="1481" type="line" smooth="no"/>
      <point x="1367" y="0" type="line" smooth="no"/>
      <point x="1023" y="0" type="line" smooth="no"/>
      <point x="1023" y="646" type="line" smooth="no"/>
      <point x="489" y="646" type="line" smooth="no"/>
      <point x="489" y="0" type="line" smooth="no"/>
    </contour>
  </outline>
</glyph>
<glyph name="I" format="1">
  <advance width="901"/>
  <unicode hex="0049"/>
  <outline>
    <contour>
      <point x="64" y="0" type="line" smooth="no"/>
      <point x="64" y="249" type="line" smooth="no"/>
      <point x="277" y="249" type="line" smooth="no"/>
      <point x="277" y="1232" type="line" smooth="no"/>
      <point x="64" y="1232" type="line" smooth="no"/>
      <point x="64" y="1481" type="line" smooth="no"/>
      <point x="833" y="1481" type="line" smooth="no"/>
      <point x="833" y="1232" type="line" smooth="no"/>
      <point x="620" y="1232" type="line" smooth="no"/>
      <point x="620" y="249" type="line" smooth="no"/>
      <point x="833" y="249" type="line" smooth="no"/>
      <point x="833" y="0" type="line" smooth="no"/>
    </contour>
  </outline>
</glyph>
<glyph name="K" format="1">
  <advance width="1435"/>
  <unicode hex="004b"/>
  <outline>
    <contour>
      <point x="146" y="0" type="line" smooth="no"/>
      <point x="146" y="1481" type="line" smooth="no"/>
      <point x="488" y="1481" type="line" smooth="no"/>
      <point x="488" y="799" type="line" smooth="no"/>
      <point x="489" y="799" type="line" smooth="no"/>
      <point x="656" y="1012" type="line" smooth="no"/>
      <point x="749" y="1143"/>
      <point x="932" y="1368"/>
      <point x="1012" y="1481" type="curve" smooth="no"/>
      <point x="1412" y="1481" type="line" smooth="no"/>
      <point x="913" y="833" type="line" smooth="no"/>
      <point x="1441" y="0" type="line" smooth="no"/>
      <point x="1036" y="0" type="line" smooth="no"/>
      <point x="1009" y="46"/>
      <point x="814" y="369"/>
      <point x="717" y="535" type="curve" smooth="no"/>
      <point x="642" y="657" type="line" smooth="no"/>
      <point x="488" y="478" type="line" smooth="no"/>
      <point x="488" y="0" type="line" smooth="no"/>
    </contour>
  </outline>
</glyph>
<glyph name="P" format="1">
  <advance width="1328"/>
  <unicode hex="0050"/>
  <outline>
    <contour>
      <point x="146" y="0" type="line" smooth="no"/>
      <point x="146" y="1481" type="line" smooth="no"/>
      <point x="724" y="1481" type="line" smooth="yes"/>
      <point x="1035" y="1481"/>
      <point x="1285" y="1353"/>
      <point x="1285" y="1012" type="curve" smooth="yes"/>
      <point x="1285" y="715"/>
      <point x="1063" y="533"/>
      <point x="701" y="533" type="curve" smooth="yes"/>
      <point x="489" y="533" type="line" smooth="no"/>
      <point x="489" y="0" type="line" smooth="no"/>
    </contour>
    <contour>
      <point x="489" y="777" type="line" smooth="no"/>
      <point x="562" y="777" type="line" smooth="yes"/>
      <point x="764" y="777"/>
      <point x="937" y="796"/>
      <point x="937" y="1010" type="curve" smooth="yes"/>
      <point x="937" y="1197"/>
      <point x="789" y="1237"/>
      <point x="619" y="1237" type="curve" smooth="yes"/>
      <point x="489" y="1237" type="line" smooth="no"/>
    </contour>
  </outline>
</glyph>
<glyph name="Q" format="1">
  <advance width="1577"/>
  <unicode hex="0051"/>
  <outline>
    <contour>
      <point x="790" y="-24" type="curve" smooth="yes"/>
      <point x="330" y="-24"/>
      <point x="99" y="258"/>
      <point x="99" y="740" type="curve" smooth="yes"/>
      <point x="99" y="1225"/>
      <point x="332" y="1504"/>
      <point x="790" y="1504" type="curve" smooth="yes"/>
      <point x="1248" y="1504"/>
      <point x="1478" y="1226"/>
      <point x="1478" y="740" type="curve" smooth="yes"/>
      <point x="1478" y="366"/>
      <point x="1340" y="112"/>
      <point x="1063" y="17" type="curve" smooth="no"/>
      <point x="1215" y="-330" type="line" smooth="no"/>
      <point x="1030" y="-412" type="line" smooth="no"/>
      <point x="855" y="-22" type="line" smooth="no"/>
      <point x="834" y="-23"/>
      <point x="812" y="-24"/>
    </contour>
    <contour>
      <point x="952" y="270" type="line" smooth="no"/>
      <point x="1085" y="345"/>
      <point x="1130" y="523"/>
      <point x="1130" y="740" type="curve" smooth="yes"/>
      <point x="1130" y="1037"/>
      <point x="1050" y="1248"/>
      <point x="791" y="1248" type="curve" smooth="yes"/>
      <point x="527" y="1248"/>
      <point x="448" y="1041"/>
      <point x="448" y="740" type="curve" smooth="yes"/>
      <point x="448" y="461"/>
      <point x="517" y="261"/>
      <point x="740" y="235" type="curve" smooth="no"/>
      <point x="651" y="433" type="line" smooth="no"/>
      <point x="881" y="433" type="line" smooth="no"/>
    </contour>
  </outline>
</glyph>
<glyph name="S" format="1">
  <advance width="1325"/>
  <unicode hex="0053"/>
  <outline>
    <contour>
      <point x="632" y="-24" type="curve" smooth="yes"/>
      <point x="400" y="-24"/>
      <point x="223" y="36"/>
      <point x="77" y="125" type="curve" smooth="no"/>
      <point x="123" y="390" type="line" smooth="no"/>
      <point x="175" y="390" type="line" smooth="no"/>
      <point x="306" y="283"/>
      <point x="481" y="233"/>
      <point x="634" y="233" type="curve" smooth="yes"/>
      <point x="781" y="233"/>
      <point x="908" y="284"/>
      <point x="908" y="400" type="curve" smooth="yes"/>
      <point x="908" y="539"/>
      <point x="782" y="559"/>
      <point x="539" y="618" type="curve" smooth="yes"/>
      <point x="233" y="693"/>
      <point x="110" y="802"/>
      <point x="110" y="1047" type="curve" smooth="yes"/>
      <point x="110" y="1316"/>
      <point x="355" y="1504"/>
      <point x="694" y="1504" type="curve" smooth="yes"/>
      <point x="878" y="1504"/>
      <point x="1062" y="1455"/>
      <point x="1200" y="1383" type="curve" smooth="no"/>
      <point x="1159" y="1122" type="line" smooth="no"/>
      <point x="1108" y="1122" type="line" smooth="no"/>
      <point x="992" y="1201"/>
      <point x="843" y="1247"/>
      <point x="693" y="1247" type="curve" smooth="yes"/>
      <point x="531" y="1247"/>
      <point x="446" y="1178"/>
      <point x="446" y="1076" type="curve" smooth="yes"/>
      <point x="446" y="979"/>
      <point x="517" y="941"/>
      <point x="752" y="895" type="curve" smooth="no"/>
      <point x="1111" y="817"/>
      <point x="1253" y="694"/>
      <point x="1253" y="443" type="curve" smooth="yes"/>
      <point x="1253" y="156"/>
      <point x="999" y="-24"/>
    </contour>
  </outline>
</glyph>
<glyph name="T" format="1">
  <advance width="1191"/>
  <unicode hex="0054"/>
  <outline>
    <contour>
      <point x="424" y="0" type="line" smooth="no"/>
      <point x="424" y="1232" type="line" smooth="no"/>
      <point x="0" y="1232" type="line" smooth="no"/>
      <point x="0" y="1481" type="line" smooth="no"/>
      <point x="1192" y="1481" type="line" smooth="no"/>
      <point x="1192" y="1232" type="line" smooth="no"/>
      <point x="769" y="1232" type="line" smooth="no"/>
      <point x="769" y="0" type="line" smooth="no"/>
    </contour>
  </outline>
</glyph>
<glyph name="W" format="1">
  <advance width="2038"/>
  <unicode hex="0057"/>
  <outline>
    <contour>
      <point x="393" y="0" type="line" smooth="no"/>
      <point x="5" y="1481" type="line" smooth="no"/>
      <point x="362" y="1481" type="line" smooth="no"/>
      <point x="397" y="1310"/>
      <point x="490" y="903"/>
      <point x="525" y="731" type="curve" smooth="no"/>
      <point x="577" y="483" type="line" smooth="no"/>
      <point x="580" y="483" type="line" smooth="no"/>
      <point x="655" y="759" type="line" smooth="yes"/>
      <point x="698" y="921"/>
      <point x="811" y="1319"/>
      <point x="855" y="1481" type="curve" smooth="no"/>
      <point x="1194" y="1481" type="line" smooth="no"/>
      <point x="1395" y="727" type="line" smooth="yes"/>
      <point x="1406" y="683"/>
      <point x="1448" y="520"/>
      <point x="1460" y="485" type="curve" smooth="no"/>
      <point x="1470" y="533"/>
      <point x="1501" y="668"/>
      <point x="1512" y="717" type="curve" smooth="yes"/>
      <point x="1549" y="891"/>
      <point x="1646" y="1307"/>
      <point x="1684" y="1481" type="curve" smooth="no"/>
      <point x="2034" y="1481" type="line" smooth="no"/>
      <point x="1644" y="0" type="line" smooth="no"/>
      <point x="1288" y="0" type="line" smooth="no"/>
      <point x="1233" y="199"/>
      <point x="1057" y="862"/>
      <point x="1020" y="981" type="curve" smooth="no"/>
      <point x="745" y="0" type="line" smooth="no"/>
    </contour>
  </outline>
</glyph>
<glyph name="bracketright" format="1">
  <advance width="792"/>
  <unicode hex="005d"/>
  <outline>
    <contour>
      <point x="94" y="-337" type="line" smooth="no"/>
      <point x="94" y="-125" type="line" smooth="no"/>
      <point x="377" y="-125" type="line" smooth="no"/>
      <point x="377" y="1268" type="line" smooth="no"/>
      <point x="94" y="1268" type="line" smooth="no"/>
      <point x="94" y="1481" type="line" smooth="no"/>
      <point x="666" y="1481" type="line" smooth="no"/>
      <point x="666" y="-337" type="line" smooth="no"/>
    </contour>
  </outline>
</glyph>
<glyph name="a" format="1">
  <advance width="1122"/>
  <unicode hex="0061"/>
  <outline>
    <contour>
      <point x="403" y="-22" type="curve" smooth="yes"/>
      <point x="212" y="-22"/>
      <point x="83" y="115"/>
      <point x="83" y="295" type="curve" smooth="yes"/>
      <point x="83" y="609"/>
      <point x="372" y="649"/>
      <point x="721" y="649" type="curve"/>
      <point x="721" y="779"/>
      <point x="684" y="835"/>
      <point x="520" y="835" type="curve" smooth="yes"/>
      <point x="420" y="835"/>
      <point x="309" y="794"/>
      <point x="232" y="761" type="curve"/>
      <point x="153" y="970" type="line"/>
      <point x="202" y="1002"/>
      <point x="381" y="1059"/>
      <point x="534" y="1059" type="curve" smooth="yes"/>
      <point x="885" y="1059"/>
      <point x="1024" y="935"/>
      <point x="1024" y="693" type="curve" smooth="yes"/>
      <point x="1024" y="0" type="line"/>
      <point x="720" y="0" type="line"/>
      <point x="720" y="210" type="line"/>
      <point x="669" y="78"/>
      <point x="562" y="-22"/>
    </contour>
    <contour>
      <point x="506" y="186" type="curve" smooth="yes"/>
      <point x="619" y="186"/>
      <point x="721" y="260"/>
      <point x="721" y="498" type="curve"/>
      <point x="504" y="484"/>
      <point x="381" y="454"/>
      <point x="381" y="321" type="curve" smooth="yes"/>
      <point x="381" y="240"/>
      <point x="433" y="186"/>
    </contour>
  </outline>
</glyph>
<glyph name="b" format="1">
  <advance width="1226"/>
  <unicode hex="0062"/>
  <outline>
    <contour>
      <point x="710" y="-22" type="curve" smooth="yes"/>
      <point x="590" y="-22"/>
      <point x="490" y="46"/>
      <point x="427" y="120" type="curve"/>
      <point x="427" y="0" type="line"/>
      <point x="118" y="0" type="line"/>
      <point x="118" y="1481" type="line"/>
      <point x="427" y="1481" type="line"/>
      <point x="427" y="943" type="line"/>
      <point x="513" y="1023"/>
      <point x="624" y="1059"/>
      <point x="747" y="1059" type="curve" smooth="yes"/>
      <point x="1019" y="1059"/>
      <point x="1147" y="854"/>
      <point x="1147" y="530" type="curve" smooth="yes"/>
      <point x="1147" y="207"/>
      <point x="989" y="-22"/>
    </contour>
    <contour>
      <point x="594" y="215" type="curve" smooth="yes"/>
      <point x="763" y="215"/>
      <point x="832" y="339"/>
      <point x="832" y="530" type="curve" smooth="yes"/>
      <point x="832" y="729"/>
      <point x="747" y="822"/>
      <point x="605" y="822" type="curve" smooth="yes"/>
      <point x="526" y="822"/>
      <point x="438" y="773"/>
      <point x="427" y="764" type="curve"/>
      <point x="427" y="247" type="line"/>
      <point x="445" y="236"/>
      <point x="543" y="215"/>
    </contour>
  </outline>
</glyph>
<glyph name="c" format="1">
  <advance width="1059"/>
  <unicode hex="0063"/>
  <outline>
    <contour>
      <point x="639" y="-22" type="curve" smooth="yes"/>
      <point x="333" y="-22"/>
      <point x="81" y="140"/>
      <point x="81" y="515" type="curve" smooth="yes"/>
      <point x="81" y="913"/>
      <point x="355" y="1059"/>
      <point x="631" y="1059" type="curve" smooth="yes"/>
      <point x="755" y="1059"/>
      <point x="876" y="1032"/>
      <point x="1010" y="957" type="curve" smooth="no"/>
      <point x="963" y="739" type="line" smooth="no"/>
      <point x="893" y="793"/>
      <point x="772" y="835"/>
      <point x="680" y="835" type="curve" smooth="yes"/>
      <point x="523" y="835"/>
      <point x="395" y="741"/>
      <point x="395" y="514" type="curve" smooth="yes"/>
      <point x="395" y="291"/>
      <point x="516" y="202"/>
      <point x="676" y="202" type="curve" smooth="yes"/>
      <point x="807" y="202"/>
      <point x="902" y="253"/>
      <point x="962" y="293" type="curve" smooth="no"/>
      <point x="1010" y="77" type="line" smooth="no"/>
      <point x="903" y="18"/>
      <point x="782" y="-22"/>
    </contour>
  </outline>
</glyph>
<glyph name="d" format="1">
  <advance width="1219"/>
  <unicode hex="0064"/>
  <outline>
    <contour>
      <point x="518" y="-22" type="curve" smooth="yes"/>
      <point x="241" y="-22"/>
      <point x="81" y="207"/>
      <point x="81" y="525" type="curve" smooth="yes"/>
      <point x="81" y="859"/>
      <point x="224" y="1059"/>
      <point x="516" y="1059" type="curve" smooth="yes"/>
      <point x="626" y="1059"/>
      <point x="724" y="1015"/>
      <point x="795" y="961" type="curve" smooth="no"/>
      <point x="795" y="1481" type="line" smooth="no"/>
      <point x="1104" y="1481" type="line" smooth="no"/>
      <point x="1104" y="0" type="line" smooth="no"/>
      <point x="795" y="0" type="line" smooth="no"/>
      <point x="795" y="121" type="line" smooth="no"/>
      <point x="736" y="33"/>
      <point x="639" y="-22"/>
    </contour>
    <contour>
      <point x="635" y="202" type="curve" smooth="yes"/>
      <point x="673" y="202"/>
      <point x="746" y="213"/>
      <point x="795" y="238" type="curve" smooth="no"/>
      <point x="795" y="776" type="line" smooth="no"/>
      <point x="740" y="812"/>
      <point x="670" y="835"/>
      <point x="600" y="835" type="curve" smooth="yes"/>
      <point x="455" y="835"/>
      <point x="394" y="698"/>
      <point x="394" y="512" type="curve" smooth="yes"/>
      <point x="394" y="333"/>
      <point x="476" y="202"/>
    </contour>
  </outline>
</glyph>
<glyph name="e" format="1">
  <advance width="1162"/>
  <unicode hex="0065"/>
  <outline>
    <contour>
      <point x="665" y="-22" type="curve" smooth="yes"/>
      <point x="321" y="-22"/>
      <point x="80" y="145"/>
      <point x="80" y="513" type="curve" smooth="yes"/>
      <point x="80" y="869"/>
      <point x="294" y="1059"/>
      <point x="613" y="1059" type="curve" smooth="yes"/>
      <point x="921" y="1059"/>
      <point x="1092" y="861"/>
      <point x="1092" y="561" type="curve" smooth="yes"/>
      <point x="1092" y="446" type="line" smooth="no"/>
      <point x="390" y="446" type="line" smooth="no"/>
      <point x="402" y="267"/>
      <point x="524" y="202"/>
      <point x="694" y="202" type="curve" smooth="yes"/>
      <point x="804" y="202"/>
      <point x="915" y="239"/>
      <point x="987" y="289" type="curve" smooth="no"/>
      <point x="1031" y="289" type="line" smooth="no"/>
      <point x="1077" y="93" type="line" smooth="no"/>
      <point x="1007" y="41"/>
      <point x="883" y="-22"/>
    </contour>
    <contour>
      <point x="388" y="634" type="curve" smooth="no"/>
      <point x="821" y="634" type="line" smooth="no"/>
      <point x="816" y="765"/>
      <point x="748" y="856"/>
      <point x="605" y="856" type="curve" smooth="yes"/>
      <point x="479" y="856"/>
      <point x="400" y="763"/>
    </contour>
  </outline>
</glyph>
<glyph name="g" format="1">
  <advance width="1183"/>
  <unicode hex="0067"/>
  <outline>
    <contour>
      <point x="556" y="-425" type="curve" smooth="yes"/>
      <point x="405" y="-425"/>
      <point x="260" y="-387"/>
      <point x="165" y="-343" type="curve"/>
      <point x="216" y="-128" type="line"/>
      <point x="267" y="-151"/>
      <point x="399" y="-194"/>
      <point x="524" y="-194" type="curve" smooth="yes"/>
      <point x="714" y="-194"/>
      <point x="772" y="-121"/>
      <point x="774" y="53" type="curve" smooth="yes"/>
      <point x="774" y="108" type="line"/>
      <point x="724" y="41"/>
      <point x="632" y="0"/>
      <point x="538" y="0" type="curve" smooth="yes"/>
      <point x="253" y="0"/>
      <point x="81" y="180"/>
      <point x="81" y="539" type="curve" smooth="yes"/>
      <point x="81" y="855"/>
      <point x="223" y="1059"/>
      <point x="494" y="1059" type="curve" smooth="yes"/>
      <point x="602" y="1059"/>
      <point x="702" y="1006"/>
      <point x="767" y="909" type="curve"/>
      <point x="767" y="1035" type="line"/>
      <point x="1081" y="1035" type="line"/>
      <point x="1081" y="70" type="line" smooth="yes"/>
      <point x="1081" y="-302"/>
      <point x="851" y="-425"/>
    </contour>
    <contour>
      <point x="609" y="226" type="curve" smooth="yes"/>
      <point x="667" y="226"/>
      <point x="723" y="251"/>
      <point x="766" y="287" type="curve"/>
      <point x="766" y="799" type="line"/>
      <point x="723" y="817"/>
      <point x="669" y="835"/>
      <point x="613" y="835" type="curve" smooth="yes"/>
      <point x="485" y="835"/>
      <point x="394" y="734"/>
      <point x="394" y="543" type="curve" smooth="yes"/>
      <point x="394" y="313"/>
      <point x="467" y="226"/>
    </contour>
  </outline>
</glyph>
<glyph name="i" format="1">
  <advance width="603"/>
  <unicode hex="0069"/>
  <outline>
    <contour>
      <point x="147" y="0" type="line" smooth="no"/>
      <point x="147" y="1035" type="line" smooth="no"/>
      <point x="456" y="1035" type="line" smooth="no"/>
      <point x="456" y="0" type="line" smooth="no"/>
    </contour>
    <contour>
      <point x="301" y="1224" type="curve" smooth="yes"/>
      <point x="190" y="1224"/>
      <point x="134" y="1284"/>
      <point x="134" y="1364" type="curve" smooth="yes"/>
      <point x="134" y="1445"/>
      <point x="189" y="1504"/>
      <point x="301" y="1504" type="curve" smooth="yes"/>
      <point x="412" y="1504"/>
      <point x="469" y="1445"/>
      <point x="469" y="1364" type="curve" smooth="yes"/>
      <point x="469" y="1285"/>
      <point x="413" y="1224"/>
    </contour>
  </outline>
</glyph>
<glyph name="j" format="1">
  <advance width="626"/>
  <unicode hex="006a"/>
  <outline>
    <contour>
      <point x="352" y="1224" type="curve" smooth="yes"/>
      <point x="241" y="1224"/>
      <point x="185" y="1284"/>
      <point x="185" y="1364" type="curve" smooth="yes"/>
      <point x="185" y="1445"/>
      <point x="240" y="1504"/>
      <point x="352" y="1504" type="curve" smooth="yes"/>
      <point x="463" y="1504"/>
      <point x="520" y="1445"/>
      <point x="520" y="1364" type="curve" smooth="yes"/>
      <point x="520" y="1285"/>
      <point x="464" y="1224"/>
    </contour>
    <contour>
      <point x="131" y="-391" type="curve" smooth="yes"/>
      <point x="28" y="-391"/>
      <point x="-43" y="-382"/>
      <point x="-75" y="-379" type="curve" smooth="no"/>
      <point x="-75" y="-159" type="line" smooth="no"/>
      <point x="-64" y="-160"/>
      <point x="-7" y="-164"/>
      <point x="24" y="-164" type="curve" smooth="yes"/>
      <point x="126" y="-164"/>
      <point x="190" y="-137"/>
      <point x="190" y="66" type="curve" smooth="yes"/>
      <point x="190" y="1035" type="line" smooth="no"/>
      <point x="499" y="1035" type="line" smooth="no"/>
      <point x="499" y="-42" type="line" smooth="yes"/>
      <point x="499" y="-262"/>
      <point x="362" y="-391"/>
    </contour>
  </outline>
</glyph>
<glyph name="k" format="1">
  <advance width="1160"/>
  <unicode hex="006b"/>
  <outline>
    <contour>
      <point x="118" y="0" type="line" smooth="no"/>
      <point x="118" y="1481" type="line" smooth="no"/>
      <point x="427" y="1481" type="line" smooth="no"/>
      <point x="427" y="624" type="line" smooth="no"/>
      <point x="799" y="1035" type="line" smooth="no"/>
      <point x="1127" y="1035" type="line" smooth="no"/>
      <point x="1127" y="991" type="line" smooth="no"/>
      <point x="777" y="610" type="line" smooth="no"/>
      <point x="1144" y="73" type="line" smooth="no"/>
      <point x="1144" y="0" type="line" smooth="no"/>
      <point x="832" y="0" type="line" smooth="no"/>
      <point x="526" y="467" type="line" smooth="no"/>
      <point x="427" y="366" type="line" smooth="no"/>
      <point x="427" y="0" type="line" smooth="no"/>
    </contour>
  </outline>
</glyph>
<glyph name="l" format="1">
  <advance width="656"/>
  <unicode hex="006C"/>
  <outline>
    <contour>
      <point x="403" y="-9" type="curve" smooth="yes"/>
      <point x="434" y="-9"/>
      <point x="463" y="-7"/>
      <point x="577" y="9" type="curve"/>
      <point x="577" y="217" type="line"/>
      <point x="460" y="217"/>
      <point x="428" y="247"/>
      <point x="428" y="345" type="curve" smooth="yes"/>
      <point x="428" y="1481" type="line"/>
      <point x="120" y="1481" type="line"/>
      <point x="120" y="336" type="line"/>
      <point x="120" y="181"/>
      <point x="125" y="-9"/>
    </contour>
  </outline>
</glyph>
<glyph name="o" format="1">
  <advance width="1218"/>
  <unicode hex="006f"/>
  <outline>
    <contour>
      <point x="611" y="201" type="curve" smooth="yes"/>
      <point x="752" y="201"/>
      <point x="824" y="292"/>
      <point x="824" y="516" type="curve" smooth="yes"/>
      <point x="824" y="766"/>
      <point x="734" y="835"/>
      <point x="607" y="835" type="curve" smooth="yes"/>
      <point x="488" y="835"/>
      <point x="394" y="771"/>
      <point x="394" y="517" type="curve" smooth="yes"/>
      <point x="394" y="266"/>
      <point x="483" y="201"/>
    </contour>
    <contour>
      <point x="607" y="-22" type="curve" smooth="yes"/>
      <point x="276" y="-22"/>
      <point x="80" y="160"/>
      <point x="80" y="519" type="curve" smooth="yes"/>
      <point x="80" y="878"/>
      <point x="278" y="1059"/>
      <point x="607" y="1059" type="curve" smooth="yes"/>
      <point x="940" y="1059"/>
      <point x="1138" y="876"/>
      <point x="1138" y="518" type="curve" smooth="yes"/>
      <point x="1138" y="161"/>
      <point x="940" y="-22"/>
    </contour>
  </outline>
</glyph>
<glyph name="s" format="1">
  <advance width="971"/>
  <unicode hex="0073"/>
  <outline>
    <contour>
      <point x="461" y="-22" type="curve" smooth="yes"/>
      <point x="321" y="-22"/>
      <point x="165" y="13"/>
      <point x="68" y="71" type="curve"/>
      <point x="146" y="280" type="line"/>
      <point x="169" y="280" type="line"/>
      <point x="230" y="237"/>
      <point x="329" y="196"/>
      <point x="473" y="196" type="curve" smooth="yes"/>
      <point x="563" y="196"/>
      <point x="617" y="225"/>
      <point x="617" y="291" type="curve" smooth="yes"/>
      <point x="617" y="360"/>
      <point x="558" y="376"/>
      <point x="384" y="415" type="curve" smooth="yes"/>
      <point x="176" y="462"/>
      <point x="58" y="531"/>
      <point x="58" y="726" type="curve" smooth="yes"/>
      <point x="58" y="920"/>
      <point x="224" y="1059"/>
      <point x="500" y="1059" type="curve" smooth="yes"/>
      <point x="653" y="1059"/>
      <point x="781" y="1025"/>
      <point x="859" y="983" type="curve"/>
      <point x="799" y="762" type="line"/>
      <point x="784" y="762" type="line"/>
      <point x="720" y="799"/>
      <point x="630" y="842"/>
      <point x="514" y="842" type="curve" smooth="yes"/>
      <point x="419" y="842"/>
      <point x="362" y="805"/>
      <point x="362" y="748" type="curve" smooth="yes"/>
      <point x="362" y="690"/>
      <point x="392" y="682"/>
      <point x="573" y="641" type="curve" smooth="yes"/>
      <point x="820" y="586"/>
      <point x="921" y="514"/>
      <point x="921" y="317" type="curve" smooth="yes"/>
      <point x="921" y="115"/>
      <point x="758" y="-22"/>
    </contour>
  </outline>
</glyph>
<glyph name="u" format="1">
  <advance width="1184"/>
  <unicode hex="0075"/>
  <outline>
    <contour>
      <point x="438" y="-22" type="curve" smooth="yes"/>
      <point x="270" y="-22"/>
      <point x="99" y="96"/>
      <point x="99" y="342" type="curve" smooth="yes"/>
      <point x="99" y="1035" type="line" smooth="no"/>
      <point x="415" y="1035" type="line" smooth="no"/>
      <point x="415" y="462" type="line" smooth="yes"/>
      <point x="415" y="291"/>
      <point x="472" y="217"/>
      <point x="588" y="217" type="curve" smooth="yes"/>
      <point x="668" y="217"/>
      <point x="759" y="274"/>
      <point x="759" y="325" type="curve" smooth="yes"/>
      <point x="759" y="1035" type="line" smooth="no"/>
      <point x="1068" y="1035" type="line" smooth="no"/>
      <point x="1068" y="0" type="line" smooth="no"/>
      <point x="759" y="0" type="line" smooth="no"/>
      <point x="759" y="157" type="line" smooth="no"/>
      <point x="694" y="36"/>
      <point x="568" y="-22"/>
    </contour>
  </outline>
</glyph>
<glyph name="v" format="1">
  <advance width="1062"/>
  <unicode hex="0076"/>
  <outline>
    <contour>
      <point x="368" y="0" type="line" smooth="no"/>
      <point x="-17" y="1035" type="line" smooth="no"/>
      <point x="307" y="1035" type="line" smooth="no"/>
      <point x="491" y="479" type="line" smooth="no"/>
      <point x="536" y="327" type="line" smooth="no"/>
      <point x="538" y="327" type="line" smooth="no"/>
      <point x="583" y="479" type="line" smooth="yes"/>
      <point x="758" y="1035" type="line" smooth="no"/>
      <point x="1080" y="1035" type="line" smooth="no"/>
      <point x="695" y="0" type="line" smooth="no"/>
    </contour>
  </outline>
</glyph>
<glyph name="w" format="1">
  <advance width="1690"/>
  <unicode hex="0077"/>
  <outline>
    <contour>
      <point x="322" y="0" type="line" smooth="no"/>
      <point x="5" y="1035" type="line" smooth="no"/>
      <point x="335" y="1035" type="line" smooth="no"/>
      <point x="479" y="415" type="line" smooth="yes"/>
      <point x="503" y="311" type="line" smooth="no"/>
      <point x="504" y="311" type="line" smooth="no"/>
      <point x="533" y="415" type="line" smooth="no"/>
      <point x="711" y="1035" type="line" smooth="no"/>
      <point x="995" y="1035" type="line" smooth="no"/>
      <point x="1155" y="442" type="line" smooth="yes"/>
      <point x="1191" y="319" type="line" smooth="no"/>
      <point x="1219" y="436" type="line" smooth="no"/>
      <point x="1359" y="1035" type="line" smooth="no"/>
      <point x="1686" y="1035" type="line" smooth="no"/>
      <point x="1367" y="0" type="line" smooth="no"/>
      <point x="1033" y="0" type="line" smooth="no"/>
      <point x="846" y="709" type="line" smooth="no"/>
      <point x="844" y="709" type="line" smooth="no"/>
      <point x="654" y="0" type="line" smooth="no"/>
    </contour>
  </outline>
</glyph>
<glyph name="y" format="1">
  <advance width="1087"/>
  <unicode hex="0079"/>
  <outline>
    <contour>
      <point x="226" y="-392" type="line" smooth="no"/>
      <point x="286" y="-275"/>
      <point x="344" y="-149"/>
      <point x="399" y="7" type="curve" smooth="no"/>
      <point x="0" y="1035" type="line" smooth="no"/>
      <point x="324" y="1035" type="line" smooth="no"/>
      <point x="561" y="353" type="line" smooth="no"/>
      <point x="780" y="1035" type="line" smooth="no"/>
      <point x="1106" y="1035" type="line" smooth="no"/>
      <point x="681" y="-103" type="line" smooth="no"/>
      <point x="634" y="-235"/>
      <point x="548" y="-393"/>
      <point x="547" y="-392" type="curve" smooth="no"/>
    </contour>
  </outline>
</glyph>
<glyph name="braceright" format="1">
  <advance width="1030"/>
  <unicode hex="007d"/>
  <outline>
    <contour>
      <point x="21" y="-315" type="line" smooth="no"/>
      <point x="21" y="-113" type="line" smooth="no"/>
      <point x="107" y="-113" type="line" smooth="yes"/>
      <point x="277" y="-113"/>
      <point x="337" y="-77"/>
      <point x="337" y="122" type="curve" smooth="yes"/>
      <point x="337" y="181" type="line" smooth="yes"/>
      <point x="337" y="422"/>
      <point x="432" y="532"/>
      <point x="603" y="587" type="curve" smooth="no"/>
      <point x="603" y="603" type="line" smooth="no"/>
      <point x="462" y="648"/>
      <point x="337" y="749"/>
      <point x="337" y="956" type="curve" smooth="yes"/>
      <point x="337" y="1037" type="line" smooth="yes"/>
      <point x="337" y="1271"/>
      <point x="294" y="1302"/>
      <point x="116" y="1302" type="curve" smooth="yes"/>
      <point x="21" y="1302" type="line" smooth="no"/>
      <point x="21" y="1504" type="line" smooth="no"/>
      <point x="135" y="1504" type="line" smooth="yes"/>
      <point x="448" y="1504"/>
      <point x="632" y="1459"/>
      <point x="632" y="1139" type="curve" smooth="yes"/>
      <point x="632" y="1004" type="line" smooth="yes"/>
      <point x="632" y="787"/>
      <point x="723" y="705"/>
      <point x="964" y="705" type="curve" smooth="no"/>
      <point x="964" y="483" type="line" smooth="no"/>
      <point x="722" y="483"/>
      <point x="632" y="412"/>
      <point x="632" y="186" type="curve" smooth="yes"/>
      <point x="632" y="8" type="line" smooth="yes"/>
      <point x="632" y="-275"/>
      <point x="436" y="-315"/>
      <point x="161" y="-315" type="curve" smooth="yes"/>
    </contour>
  </outline>
</glyph>
<glyph name="currency" format="1">
  <advance width="942"/>
  <unicode hex="00a4"/>
  <outline>
    <contour>
      <point x="140" y="253" type="line" smooth="no"/>
      <point x="38" y="353" type="line" smooth="no"/>
      <point x="132" y="450" type="line" smooth="no"/>
      <point x="89" y="501"/>
      <point x="57" y="593"/>
      <point x="57" y="687" type="curve" smooth="yes"/>
      <point x="57" y="781"/>
      <point x="88" y="873"/>
      <point x="132" y="929" type="curve" smooth="no"/>
      <point x="38" y="1023" type="line" smooth="no"/>
      <point x="140" y="1122" type="line" smooth="no"/>
      <point x="235" y="1029" type="line" smooth="no"/>
      <point x="288" y="1072"/>
      <point x="380" y="1104"/>
      <point x="475" y="1104" type="curve" smooth="yes"/>
      <point x="569" y="1104"/>
      <point x="654" y="1074"/>
      <point x="711" y="1031" type="curve" smooth="no"/>
      <point x="806" y="1122" type="line" smooth="no"/>
      <point x="907" y="1023" type="line" smooth="no"/>
      <point x="813" y="929" type="line" smooth="no"/>
      <point x="856" y="873"/>
      <point x="890" y="781"/>
      <point x="890" y="687" type="curve" smooth="yes"/>
      <point x="890" y="592"/>
      <point x="856" y="501"/>
      <point x="813" y="448" type="curve" smooth="no"/>
      <point x="907" y="353" type="line" smooth="no"/>
      <point x="806" y="253" type="line" smooth="no"/>
      <point x="711" y="348" type="line" smooth="no"/>
      <point x="654" y="304"/>
      <point x="569" y="273"/>
      <point x="475" y="273" type="curve" smooth="yes"/>
      <point x="380" y="273"/>
      <point x="288" y="307"/>
      <point x="235" y="348" type="curve" smooth="no"/>
    </contour>
    <contour>
      <point x="475" y="405" type="curve" smooth="yes"/>
      <point x="637" y="405"/>
      <point x="744" y="513"/>
      <point x="744" y="687" type="curve" smooth="yes"/>
      <point x="744" y="862"/>
      <point x="637" y="971"/>
      <point x="475" y="971" type="curve" smooth="yes"/>
      <point x="313" y="971"/>
      <point x="203" y="862"/>
      <point x="203" y="687" type="curve" smooth="yes"/>
      <point x="203" y="513"/>
      <point x="313" y="405"/>
    </contour>
  </outline>
</glyph>
<glyph name="brokenbar" format="1">
  <advance width="399"/>
  <unicode hex="00a6"/>
  <outline>
    <contour>
      <point x="99" y="-338" type="line" smooth="no"/>
      <point x="99" y="338" type="line" smooth="no"/>
      <point x="301" y="338" type="line" smooth="no"/>
      <point x="301" y="-338" type="line" smooth="no"/>
    </contour>
    <contour>
      <point x="99" y="628" type="line" smooth="no"/>
      <point x="99" y="1303" type="line" smooth="no"/>
      <point x="301" y="1303" type="line" smooth="no"/>
      <point x="301" y="628" type="line" smooth="no"/>
    </contour>
  </outline>
</glyph>
<glyph name="logicalnot" format="1">
  <advance width="1459"/>
  <unicode hex="00ac"/>
  <outline>
    <contour>
      <point x="1063" y="99" type="line" smooth="no"/>
      <point x="1063" y="544" type="line" smooth="no"/>
      <point x="134" y="544" type="line" smooth="no"/>
      <point x="134" y="779" type="line" smooth="no"/>
      <point x="1323" y="779" type="line" smooth="no"/>
      <point x="1323" y="99" type="line" smooth="no"/>
    </contour>
  </outline>
</glyph>
<glyph name="uni00AD" format="1">
  <advance width="778"/>
  <unicode hex="00ad"/>
  <outline>
    <contour>
      <point x="99" y="436" type="line" smooth="no"/>
      <point x="99" y="634" type="line" smooth="no"/>
      <point x="680" y="634" type="line" smooth="no"/>
      <point x="680" y="436" type="line" smooth="no"/>
    </contour>
  </outline>
</glyph>
<glyph name="macron" format="1">
  <advance width="540"/>
  <unicode hex="00af"/>
  <outline>
    <contour>
      <point x="-3" y="1138" type="line" smooth="no"/>
      <point x="-3" y="1335" type="line" smooth="no"/>
      <point x="549" y="1335" type="line" smooth="no"/>
      <point x="549" y="1138" type="line" smooth="no"/>
    </contour>
  </outline>
</glyph>
<glyph name="plusminus" format="1">
  <advance width="1398"/>
  <unicode hex="00b1"/>
  <outline>
    <contour>
      <point x="555" y="280" type="line" smooth="no"/>
      <point x="555" y="616" type="line" smooth="no"/>
      <point x="159" y="616" type="line" smooth="no"/>
      <point x="159" y="791" type="line" smooth="no"/>
      <point x="555" y="791" type="line" smooth="no"/>
      <point x="555" y="1129" type="line" smooth="no"/>
      <point x="738" y="1129" type="line" smooth="no"/>
      <point x="738" y="791" type="line" smooth="no"/>
      <point x="1136" y="791" type="line" smooth="no"/>
      <point x="1136" y="616" type="line" smooth="no"/>
      <point x="738" y="616" type="line" smooth="no"/>
      <point x="738" y="280" type="line" smooth="no"/>
    </contour>
    <contour>
      <point x="157" y="0" type="line" smooth="no"/>
      <point x="157" y="176" type="line" smooth="no"/>
      <point x="1135" y="176" type="line" smooth="no"/>
      <point x="1135" y="0" type="line" smooth="no"/>
    </contour>
  </outline>
</glyph>
<glyph name="paragraph" format="1">
  <advance width="1230"/>
  <unicode hex="00b6"/>
  <outline>
    <contour>
      <point x="587" y="-270" type="line" smooth="no"/>
      <point x="587" y="691" type="line" smooth="no"/>
      <point x="255" y="695"/>
      <point x="61" y="842"/>
      <point x="61" y="1088" type="curve" smooth="yes"/>
      <point x="61" y="1328"/>
      <point x="239" y="1481"/>
      <point x="609" y="1481" type="curve" smooth="yes"/>
      <point x="1102" y="1481" type="line" smooth="no"/>
      <point x="1102" y="-270" type="line" smooth="no"/>
      <point x="915" y="-270" type="line" smooth="no"/>
      <point x="915" y="1325" type="line" smooth="no"/>
      <point x="781" y="1325" type="line" smooth="no"/>
      <point x="781" y="-270" type="line" smooth="no"/>
    </contour>
  </outline>
</glyph>
<glyph name="periodcentered" format="1">
  <advance width="627"/>
  <unicode hex="00b7"/>
  <outline>
    <contour>
      <point x="319" y="401" type="curve" smooth="yes"/>
      <point x="212" y="401"/>
      <point x="124" y="489"/>
      <point x="124" y="596" type="curve" smooth="yes"/>
      <point x="124" y="703"/>
      <point x="212" y="790"/>
      <point x="319" y="790" type="curve" smooth="yes"/>
      <point x="427" y="790"/>
      <point x="514" y="703"/>
      <point x="514" y="596" type="curve" smooth="yes"/>
      <point x="514" y="489"/>
      <point x="427" y="401"/>
    </contour>
  </outline>
</glyph>
<glyph name="guillemotright" format="1">
  <advance width="1045"/>
  <unicode hex="00bb"/>
  <outline>
    <contour>
      <point x="117" y="135" type="line" smooth="no"/>
      <point x="117" y="412" type="line" smooth="no"/>
      <point x="308" y="596" type="line" smooth="no"/>
      <point x="308" y="596"/>
      <point x="139" y="752"/>
      <point x="117" y="770" type="curve" smooth="no"/>
      <point x="117" y="1052" type="line" smooth="no"/>
      <point x="541" y="660" type="line" smooth="no"/>
      <point x="541" y="529" type="line" smooth="no"/>
    </contour>
    <contour>
      <point x="541" y="135" type="line" smooth="no"/>
      <point x="541" y="412" type="line" smooth="no"/>
      <point x="732" y="596" type="line" smooth="no"/>
      <point x="732" y="596"/>
      <point x="563" y="752"/>
      <point x="541" y="770" type="curve" smooth="no"/>
      <point x="541" y="1052" type="line" smooth="no"/>
      <point x="966" y="660" type="line" smooth="no"/>
      <point x="966" y="529" type="line" smooth="no"/>
    </contour>
  </outline>
</glyph>
<glyph name="Eth" format="1">
  <advance width="1514"/>
  <unicode hex="00d0"/>
  <outline>
    <contour>
      <point x="0" y="658" type="line" smooth="no"/>
      <point x="0" y="852" type="line" smooth="no"/>
      <point x="146" y="852" type="line" smooth="no"/>
      <point x="146" y="1481" type="line" smooth="no"/>
      <point x="596" y="1481" type="line" smooth="yes"/>
      <point x="1112" y="1481"/>
      <point x="1415" y="1281"/>
      <point x="1415" y="739" type="curve" smooth="yes"/>
      <point x="1415" y="192"/>
      <point x="1101" y="0"/>
      <point x="594" y="0" type="curve" smooth="yes"/>
      <point x="146" y="0" type="line" smooth="no"/>
      <point x="146" y="658" type="line" smooth="no"/>
    </contour>
    <contour>
      <point x="489" y="249" type="line" smooth="no"/>
      <point x="632" y="249" type="line" smooth="yes"/>
      <point x="942" y="249"/>
      <point x="1067" y="384"/>
      <point x="1067" y="738" type="curve" smooth="yes"/>
      <point x="1067" y="1069"/>
      <point x="927" y="1232"/>
      <point x="680" y="1232" type="curve" smooth="yes"/>
      <point x="489" y="1232" type="line" smooth="no"/>
      <point x="489" y="852" type="line" smooth="no"/>
      <point x="704" y="852" type="line" smooth="no"/>
      <point x="704" y="658" type="line" smooth="no"/>
      <point x="489" y="658" type="line" smooth="no"/>
    </contour>
  </outline>
</glyph>
<glyph name="multiply" format="1">
  <advance width="1123"/>
  <unicode hex="00d7"/>
  <outline>
    <contour>
      <point x="218" y="41" type="line" smooth="no"/>
      <point x="113" y="148" type="line" smooth="no"/>
      <point x="459" y="489" type="line" smooth="no"/>
      <point x="113" y="835" type="line" smooth="no"/>
      <point x="218" y="943" type="line" smooth="no"/>
      <point x="563" y="596" type="line" smooth="no"/>
      <point x="905" y="943" type="line" smooth="no"/>
      <point x="1014" y="835" type="line" smooth="no"/>
      <point x="667" y="489" type="line" smooth="no"/>
      <point x="1014" y="148" type="line" smooth="no"/>
      <point x="905" y="41" type="line" smooth="no"/>
      <point x="563" y="387" type="line" smooth="no"/>
    </contour>
  </outline>
</glyph>
<glyph name="ae" format="1">
  <advance width="1768"/>
  <unicode hex="00e6"/>
  <outline>
    <contour>
      <point x="454" y="-22" type="curve" smooth="yes"/>
      <point x="202" y="-22"/>
      <point x="41" y="86"/>
      <point x="41" y="296" type="curve" smooth="yes"/>
      <point x="41" y="540"/>
      <point x="264" y="625"/>
      <point x="543" y="645" type="curve" smooth="no"/>
      <point x="589" y="654"/>
      <point x="701" y="654"/>
      <point x="703" y="654" type="curve" smooth="no"/>
      <point x="702" y="762"/>
      <point x="660" y="840"/>
      <point x="467" y="840" type="curve" smooth="yes"/>
      <point x="382" y="840"/>
      <point x="233" y="805"/>
      <point x="151" y="759" type="curve" smooth="no"/>
      <point x="95" y="967" type="line" smooth="no"/>
      <point x="161" y="1014"/>
      <point x="350" y="1060"/>
      <point x="496" y="1060" type="curve" smooth="yes"/>
      <point x="672" y="1060"/>
      <point x="807" y="1033"/>
      <point x="887" y="909" type="curve" smooth="no"/>
      <point x="964" y="1018"/>
      <point x="1108" y="1061"/>
      <point x="1233" y="1061" type="curve" smooth="yes"/>
      <point x="1549" y="1061"/>
      <point x="1719" y="867"/>
      <point x="1719" y="565" type="curve" smooth="yes"/>
      <point x="1719" y="442" type="line" smooth="no"/>
      <point x="1016" y="442" type="line" smooth="no"/>
      <point x="1027" y="268"/>
      <point x="1145" y="198"/>
      <point x="1319" y="198" type="curve" smooth="yes"/>
      <point x="1436" y="198"/>
      <point x="1559" y="248"/>
      <point x="1607" y="307" type="curve" smooth="no"/>
      <point x="1654" y="306" type="line" smooth="no"/>
      <point x="1704" y="92" type="line" smooth="no"/>
      <point x="1617" y="35"/>
      <point x="1512" y="-25"/>
      <point x="1271" y="-25" type="curve" smooth="yes"/>
      <point x="1041" y="-25"/>
      <point x="931" y="78"/>
      <point x="862" y="166" type="curve" smooth="no"/>
      <point x="772" y="43"/>
      <point x="608" y="-22"/>
    </contour>
    <contour>
      <point x="507" y="194" type="curve" smooth="yes"/>
      <point x="694" y="194"/>
      <point x="714" y="338"/>
      <point x="709" y="466" type="curve" smooth="no"/>
      <point x="481" y="455"/>
      <point x="347" y="438"/>
      <point x="347" y="320" type="curve" smooth="yes"/>
      <point x="347" y="245"/>
      <point x="390" y="194"/>
    </contour>
    <contour>
      <point x="1014" y="630" type="curve" smooth="no"/>
      <point x="1417" y="630" type="line" smooth="no"/>
      <point x="1415" y="768"/>
      <point x="1345" y="856"/>
      <point x="1221" y="856" type="curve" smooth="yes"/>
      <point x="1083" y="856"/>
      <point x="1020" y="760"/>
    </contour>
  </outline>
</glyph>
<glyph name="oslash" format="1">
  <advance width="1162"/>
  <unicode hex="00f8"/>
  <outline>
    <contour>
      <point x="581" y="-22" type="curve" smooth="yes"/>
      <point x="484" y="-22"/>
      <point x="399" y="-9"/>
      <point x="325" y="25" type="curve" smooth="no"/>
      <point x="229" y="-116" type="line" smooth="no"/>
      <point x="75" y="-116" type="line" smooth="no"/>
      <point x="216" y="92" type="line" smooth="no"/>
      <point x="110" y="183"/>
      <point x="53" y="325"/>
      <point x="53" y="519" type="curve" smooth="yes"/>
      <point x="53" y="878"/>
      <point x="252" y="1060"/>
      <point x="581" y="1060" type="curve" smooth="yes"/>
      <point x="682" y="1060"/>
      <point x="773" y="1041"/>
      <point x="848" y="1004" type="curve" smooth="no"/>
      <point x="931" y="1127" type="line" smooth="no"/>
      <point x="1087" y="1127" type="line" smooth="no"/>
      <point x="955" y="936" type="line" smooth="no"/>
      <point x="1058" y="847"/>
      <point x="1111" y="706"/>
      <point x="1111" y="518" type="curve" smooth="yes"/>
      <point x="1111" y="161"/>
      <point x="914" y="-22"/>
    </contour>
    <contour>
      <point x="369" y="315" type="curve" smooth="no"/>
      <point x="716" y="798" type="line" smooth="no"/>
      <point x="682" y="824"/>
      <point x="629" y="836"/>
      <point x="581" y="836" type="curve" smooth="yes"/>
      <point x="462" y="836"/>
      <point x="347" y="771"/>
      <point x="347" y="517" type="curve" smooth="yes"/>
      <point x="347" y="445"/>
      <point x="354" y="359"/>
    </contour>
    <contour>
      <point x="584" y="202" type="curve" smooth="yes"/>
      <point x="725" y="202"/>
      <point x="826" y="292"/>
      <point x="826" y="516" type="curve" smooth="yes"/>
      <point x="826" y="582"/>
      <point x="808" y="665"/>
      <point x="795" y="708" type="curve" smooth="no"/>
      <point x="450" y="231" type="line" smooth="no"/>
      <point x="484" y="211"/>
      <point x="540" y="202"/>
    </contour>
  </outline>
</glyph>
<glyph name="Dcroat" format="1">
  <advance width="1514"/>
  <unicode hex="0110"/>
  <outline>
    <component base="D"/>
    <contour>
      <point x="0" y="658" type="line" smooth="no"/>
      <point x="0" y="852" type="line" smooth="no"/>
      <point x="704" y="852" type="line" smooth="no"/>
      <point x="704" y="658" type="line" smooth="no"/>
    </contour>
  </outline>
</glyph>
<glyph name="gcommaaccent" format="1">
  <advance width="1183"/>
  <unicode hex="0123"/>
  <outline>
    <contour>
      <point x="846" y="1755" type="line"/>
      <point x="787" y="1182" type="line"/>
      <point x="452" y="1182" type="line"/>
      <point x="675" y="1755" type="line"/>
    </contour>
    <component base="g"/>
  </outline>
</glyph>
<glyph name="Hbar" format="1">
  <advance width="1512"/>
  <unicode hex="0126"/>
  <outline>
    <component base="H"/>
    <contour>
      <point x="68" y="1158" type="line" smooth="no"/>
      <point x="68" y="1320" type="line" smooth="no"/>
      <point x="1445" y="1320" type="line" smooth="no"/>
      <point x="1445" y="1158" type="line" smooth="no"/>
    </contour>
  </outline>
</glyph>
<glyph name="hbar" format="1">
  <advance width="1186"/>
  <unicode hex="0127"/>
  <outline>
    <component base="h"/>
    <contour>
      <point x="0" y="1158" type="line" smooth="no"/>
      <point x="0" y="1320" type="line" smooth="no"/>
      <point x="704" y="1320" type="line" smooth="no"/>
      <point x="704" y="1158" type="line" smooth="no"/>
    </contour>
  </outline>
</glyph>
<glyph name="kgreenlandic" format="1">
  <advance width="1160"/>
  <unicode hex="0138"/>
  <outline>
    <contour>
      <point x="118" y="0" type="line" smooth="no"/>
      <point x="118" y="1035" type="line" smooth="no"/>
      <point x="429" y="1035" type="line" smooth="no"/>
      <point x="429" y="599" type="line" smooth="no"/>
      <point x="429" y="599" type="line" smooth="no"/>
      <point x="799" y="1035" type="line" smooth="no"/>
      <point x="1127" y="1035" type="line" smooth="no"/>
      <point x="1127" y="991" type="line" smooth="no"/>
      <point x="767" y="579" type="line" smooth="no"/>
      <point x="1144" y="73" type="line" smooth="no"/>
      <point x="1144" y="0" type="line" smooth="no"/>
      <point x="832" y="0" type="line" smooth="no"/>
      <point x="528" y="442" type="line" smooth="no"/>
      <point x="429" y="341" type="line" smooth="no"/>
      <point x="429" y="0" type="line" smooth="no"/>
    </contour>
  </outline>
</glyph>
<glyph name="Lslash" format="1">
  <advance width="1198"/>
  <unicode hex="0141"/>
  <outline>
    <contour>
      <point x="164" y="0" type="line" smooth="no"/>
      <point x="164" y="482" type="line" smooth="no"/>
      <point x="28" y="387" type="line" smooth="no"/>
      <point x="28" y="593" type="line" smooth="no"/>
      <point x="164" y="689" type="line" smooth="no"/>
      <point x="164" y="1481" type="line" smooth="no"/>
      <point x="508" y="1481" type="line" smooth="no"/>
      <point x="508" y="931" type="line" smooth="no"/>
      <point x="758" y="1110" type="line" smooth="no"/>
      <point x="758" y="903" type="line" smooth="no"/>
      <point x="508" y="725" type="line" smooth="no"/>
      <point x="508" y="256" type="line" smooth="no"/>
      <point x="1158" y="256" type="line" smooth="no"/>
      <point x="1158" y="0" type="line" smooth="no"/>
    </contour>
  </outline>
</glyph>
<glyph name="uni0237" format="1">
  <advance width="626"/>
  <unicode hex="0237"/>
  <outline>
    <contour>
      <point x="131" y="-391" type="curve" smooth="yes"/>
      <point x="28" y="-391"/>
      <point x="-43" y="-382"/>
      <point x="-75" y="-379" type="curve" smooth="no"/>
      <point x="-75" y="-159" type="line" smooth="no"/>
      <point x="-64" y="-160"/>
      <point x="-7" y="-164"/>
      <point x="24" y="-164" type="curve" smooth="yes"/>
      <point x="126" y="-164"/>
      <point x="190" y="-137"/>
      <point x="190" y="66" type="curve" smooth="yes"/>
      <point x="190" y="1035" type="line" smooth="no"/>
      <point x="499" y="1035" type="line" smooth="no"/>
      <point x="499" y="-42" type="line" smooth="yes"/>
      <point x="499" y="-262"/>
      <point x="362" y="-391"/>
    </contour>
  </outline>
</glyph>
<glyph name="circumflex" format="1">
  <advance width="852"/>
  <unicode hex="02c6"/>
  <outline>
    <contour>
      <point x="30" y="1171" type="line" smooth="no"/>
      <point x="318" y="1514" type="line" smooth="no"/>
      <point x="532" y="1514" type="line" smooth="no"/>
      <point x="822" y="1171" type="line" smooth="no"/>
      <point x="578" y="1171" type="line" smooth="no"/>
      <point x="424" y="1356" type="line" smooth="no"/>
      <point x="270" y="1171" type="line" smooth="no"/>
    </contour>
  </outline>
</glyph>
<glyph name="caron" format="1">
  <advance width="885"/>
  <unicode hex="02c7"/>
  <outline>
    <contour>
      <point x="330" y="1174" type="line" smooth="no"/>
      <point x="18" y="1514" type="line" smooth="no"/>
      <point x="276" y="1514" type="line" smooth="no"/>
      <point x="444" y="1330" type="line" smooth="no"/>
      <point x="610" y="1514" type="line" smooth="no"/>
      <point x="868" y="1514" type="line" smooth="no"/>
      <point x="554" y="1174" type="line" smooth="no"/>
    </contour>
  </outline>
</glyph>
<glyph name="tilde" format="1">
  <advance width="1079"/>
  <unicode hex="02dc"/>
  <outline>
    <contour>
      <point x="762" y="211" type="curve" smooth="yes"/>
      <point x="651" y="211"/>
      <point x="453" y="303"/>
      <point x="390" y="303" type="curve" smooth="yes"/>
      <point x="350" y="303"/>
      <point x="331" y="287"/>
      <point x="331" y="211" type="curve" smooth="no"/>
      <point x="331" y="211"/>
      <point x="159" y="209"/>
      <point x="159" y="211" type="curve" smooth="yes"/>
      <point x="159" y="440"/>
      <point x="231" y="523"/>
      <point x="360" y="523" type="curve" smooth="yes"/>
      <point x="454" y="523"/>
      <point x="696" y="427"/>
      <point x="734" y="427" type="curve" smooth="yes"/>
      <point x="770" y="427"/>
      <point x="781" y="438"/>
      <point x="781" y="523" type="curve" smooth="no"/>
      <point x="954" y="523" type="line" smooth="no"/>
      <point x="951" y="279"/>
      <point x="912" y="211"/>
    </contour>
  </outline>
</glyph>
<glyph name="uni030F" format="1">
  <advance width="725"/>
  <unicode hex="030f"/>
  <outline>
    <contour>
      <point x="278" y="1137" type="line" smooth="no"/>
      <point x="-14" y="1481" type="line" smooth="no"/>
      <point x="231" y="1481" type="line" smooth="no"/>
      <point x="433" y="1137" type="line" smooth="no"/>
    </contour>
    <contour>
      <point x="585" y="1137" type="line" smooth="no"/>
      <point x="321" y="1481" type="line" smooth="no"/>
      <point x="547" y="1481" type="line" smooth="no"/>
      <point x="739" y="1137" type="line" smooth="no"/>
    </contour>
  </outline>
</glyph>
<glyph name="uni0326" format="1">
  <advance width="470"/>
  <unicode hex="0326"/>
  <outline>
    <contour>
      <point x="45" y="-235" type="line" smooth="no"/>
      <point x="104" y="338" type="line" smooth="no"/>
      <point x="439" y="338" type="line" smooth="no"/>
      <point x="216" y="-235" type="line" smooth="no"/>
    </contour>
  </outline>
</glyph>
<glyph name="endash" format="1">
  <advance width="1269"/>
  <unicode hex="2013"/>
  <outline>
    <contour>
      <point x="-5" y="469" type="line" smooth="no"/>
      <point x="-5" y="715" type="line" smooth="no"/>
      <point x="1275" y="715" type="line" smooth="no"/>
      <point x="1275" y="469" type="line" smooth="no"/>
    </contour>
  </outline>
</glyph>
<glyph name="emdash" format="1">
  <advance width="1917"/>
  <unicode hex="2014"/>
  <outline>
    <contour>
      <point x="-5" y="469" type="line" smooth="no"/>
      <point x="-5" y="715" type="line" smooth="no"/>
      <point x="1924" y="715" type="line" smooth="no"/>
      <point x="1924" y="469" type="line" smooth="no"/>
    </contour>
  </outline>
</glyph>
<glyph name="quotedblleft" format="1">
  <advance width="844"/>
  <unicode hex="201c"/>
  <outline>
    <contour>
      <point x="207" y="962" type="line" smooth="no"/>
      <point x="25" y="1481" type="line" smooth="no"/>
      <point x="315" y="1481" type="line" smooth="no"/>
      <point x="418" y="962" type="line" smooth="no"/>
    </contour>
    <contour>
      <point x="584" y="962" type="line" smooth="no"/>
      <point x="402" y="1481" type="line" smooth="no"/>
      <point x="693" y="1481" type="line" smooth="no"/>
      <point x="795" y="962" type="line" smooth="no"/>
    </contour>
  </outline>
</glyph>
<glyph name="quotedblright" format="1">
  <advance width="843"/>
  <unicode hex="201d"/>
  <outline>
    <contour>
      <point x="75" y="993" type="line" smooth="no"/>
      <point x="174" y="1481" type="line" smooth="no"/>
      <point x="463" y="1481" type="line" smooth="no"/>
      <point x="274" y="993" type="line" smooth="no"/>
    </contour>
    <contour>
      <point x="459" y="993" type="line" smooth="no"/>
      <point x="558" y="1481" type="line" smooth="no"/>
      <point x="847" y="1481" type="line" smooth="no"/>
      <point x="658" y="993" type="line" smooth="no"/>
    </contour>
  </outline>
</glyph>
<glyph name="Euro" format="1">
  <advance width="1171"/>
  <unicode hex="20ac"/>
  <outline>
    <contour>
      <point x="773" y="-24" type="curve" smooth="no"/>
      <point x="416" y="-24"/>
      <point x="190" y="134"/>
      <point x="108" y="488" type="curve" smooth="no"/>
      <point x="-42" y="488" type="line" smooth="no"/>
      <point x="-2" y="651" type="line" smooth="no"/>
      <point x="82" y="651" type="line" smooth="no"/>
      <point x="81" y="662"/>
      <point x="80" y="678"/>
      <point x="80" y="696" type="curve" smooth="yes"/>
      <point x="80" y="717"/>
      <point x="81" y="774"/>
      <point x="83" y="819" type="curve" smooth="no"/>
      <point x="-38" y="819" type="line" smooth="no"/>
      <point x="-4" y="973" type="line" smooth="no"/>
      <point x="103" y="973" type="line" smooth="no"/>
      <point x="171" y="1319"/>
      <point x="406" y="1504"/>
      <point x="758" y="1504" type="curve" smooth="yes"/>
      <point x="900" y="1504"/>
      <point x="1047" y="1467"/>
      <point x="1169" y="1406" type="curve" smooth="no"/>
      <point x="1169" y="1105" type="line" smooth="no"/>
      <point x="1066" y="1105" type="line" smooth="no"/>
      <point x="1013" y="1216"/>
      <point x="893" y="1254"/>
      <point x="806" y="1254" type="curve" smooth="yes"/>
      <point x="638" y="1254"/>
      <point x="513" y="1179"/>
      <point x="460" y="973" type="curve" smooth="no"/>
      <point x="1030" y="973" type="line" smooth="no"/>
      <point x="995" y="819" type="line" smooth="no"/>
      <point x="432" y="819" type="line" smooth="no"/>
      <point x="430" y="774"/>
      <point x="428" y="716"/>
      <point x="428" y="696" type="curve" smooth="yes"/>
      <point x="428" y="678"/>
      <point x="428" y="662"/>
      <point x="429" y="651" type="curve" smooth="no"/>
      <point x="968" y="651" type="line" smooth="no"/>
      <point x="930" y="488" type="line" smooth="no"/>
      <point x="469" y="488" type="line" smooth="no"/>
      <point x="515" y="334"/>
      <point x="612" y="233"/>
      <point x="793" y="227" type="curve" smooth="no"/>
      <point x="859" y="227"/>
      <point x="1021" y="244"/>
      <point x="1079" y="376" type="curve" smooth="no"/>
      <point x="1169" y="376" type="line" smooth="no"/>
      <point x="1169" y="72" type="line" smooth="no"/>
      <point x="1054" y="11"/>
      <point x="914" y="-16"/>
    </contour>
  </outline>
</glyph>
<glyph name="approxequal" format="1">
  <advance width="1212"/>
  <unicode hex="2248"/>
  <outline>
    <contour>
      <point x="276" y="204" type="curve" smooth="no"/>
      <point x="120" y="224" type="line" smooth="no"/>
      <point x="144" y="400"/>
      <point x="250" y="514"/>
      <point x="410" y="514" type="curve" smooth="yes"/>
      <point x="488" y="514"/>
      <point x="562" y="483"/>
      <point x="631" y="443" type="curve" smooth="yes"/>
      <point x="703" y="401"/>
      <point x="763" y="375"/>
      <point x="807" y="382" type="curve" smooth="yes"/>
      <point x="882" y="393"/>
      <point x="927" y="433"/>
      <point x="936" y="517" type="curve" smooth="no"/>
      <point x="1092" y="495" type="line" smooth="no"/>
      <point x="1070" y="325"/>
      <point x="968" y="209"/>
      <point x="807" y="209" type="curve" smooth="yes"/>
      <point x="743" y="209"/>
      <point x="667" y="235"/>
      <point x="573" y="288" type="curve" smooth="no"/>
      <point x="506" y="327"/>
      <point x="456" y="351"/>
      <point x="419" y="351" type="curve" smooth="yes"/>
      <point x="337" y="351"/>
      <point x="294" y="293"/>
    </contour>
    <contour>
      <point x="276" y="593" type="curve" smooth="no"/>
      <point x="120" y="614" type="line" smooth="no"/>
      <point x="144" y="788"/>
      <point x="250" y="900"/>
      <point x="412" y="900" type="curve" smooth="yes"/>
      <point x="489" y="900"/>
      <point x="562" y="870"/>
      <point x="631" y="829" type="curve" smooth="yes"/>
      <point x="700" y="788"/>
      <point x="756" y="763"/>
      <point x="799" y="765" type="curve" smooth="yes"/>
      <point x="881" y="768"/>
      <point x="925" y="819"/>
      <point x="936" y="904" type="curve" smooth="no"/>
      <point x="1092" y="883" type="line" smooth="no"/>
      <point x="1070" y="712"/>
      <point x="967" y="595"/>
      <point x="808" y="595" type="curve" smooth="yes"/>
      <point x="742" y="595"/>
      <point x="667" y="621"/>
      <point x="573" y="675" type="curve" smooth="yes"/>
      <point x="507" y="712"/>
      <point x="458" y="735"/>
      <point x="419" y="735" type="curve" smooth="yes"/>
      <point x="337" y="735"/>
      <point x="294" y="680"/>
    </contour>
  </outline>
</glyph>
<glyph name="lessequal" format="1">
  <advance width="1375"/>
  <unicode hex="2264"/>
  <outline>
    <contour>
      <point x="1203" y="254" type="line" smooth="no"/>
      <point x="204" y="618" type="line" smooth="no"/>
      <point x="204" y="809" type="line" smooth="no"/>
      <point x="1203" y="1175" type="line" smooth="no"/>
      <point x="1203" y="943" type="line" smooth="no"/>
      <point x="513" y="712" type="line" smooth="no"/>
      <point x="1203" y="487" type="line" smooth="no"/>
    </contour>
    <contour>
      <point x="199" y="1" type="line" smooth="no"/>
      <point x="199" y="176" type="line" smooth="no"/>
      <point x="1207" y="176" type="line" smooth="no"/>
      <point x="1207" y="1" type="line" smooth="no"/>
    </contour>
  </outline>
</glyph>
<glyph name="greaterequal" format="1">
  <advance width="1364"/>
  <unicode hex="2265"/>
  <outline>
    <contour>
      <point x="203" y="254" type="line" smooth="no"/>
      <point x="203" y="487" type="line" smooth="no"/>
      <point x="886" y="712" type="line" smooth="no"/>
      <point x="203" y="943" type="line" smooth="no"/>
      <point x="203" y="1175" type="line" smooth="no"/>
      <point x="1192" y="808" type="line" smooth="no"/>
      <point x="1192" y="618" type="line" smooth="no"/>
    </contour>
    <contour>
      <point x="199" y="1" type="line" smooth="no"/>
      <point x="199" y="176" type="line" smooth="no"/>
      <point x="1195" y="176" type="line" smooth="no"/>
      <point x="1195" y="1" type="line" smooth="no"/>
    </contour>
  </outline>
</glyph>
<glyph name="lozenge" format="1">
  <advance width="1108"/>
  <unicode hex="25ca"/>
  <outline>
    <contour>
      <point x="452" y="-30" type="line" smooth="no"/>
      <point x="66" y="672" type="line" smooth="no"/>
      <point x="456" y="1377" type="line" smooth="no"/>
      <point x="652" y="1377" type="line" smooth="no"/>
      <point x="1042" y="673" type="line" smooth="no"/>
      <point x="648" y="-30" type="line" smooth="no"/>
    </contour>
    <contour>
      <point x="552" y="177" type="line" smooth="no"/>
      <point x="820" y="671" type="line" smooth="no"/>
      <point x="556" y="1169" type="line" smooth="no"/>
      <point x="289" y="674" type="line" smooth="no"/>
    </contour>
  </outline>
</glyph>
<glyph name="uniFB03" format="1">
  <advance width="2075"/>
  <unicode hex="fb03"/>
  <outline>
    <contour>
      <point x="1773" y="1224" type="curve" smooth="yes"/>
      <point x="1662" y="1224"/>
      <point x="1606" y="1284"/>
      <point x="1606" y="1364" type="curve" smooth="yes"/>
      <point x="1606" y="1445"/>
      <point x="1661" y="1504"/>
      <point x="1773" y="1504" type="curve" smooth="yes"/>
      <point x="1884" y="1504"/>
      <point x="1941" y="1445"/>
      <point x="1941" y="1364" type="curve" smooth="yes"/>
      <point x="1941" y="1285"/>
      <point x="1885" y="1224"/>
    </contour>
    <contour>
      <point x="172" y="0" type="line" smooth="no"/>
      <point x="172" y="835" type="line" smooth="no"/>
      <point x="26" y="835" type="line" smooth="no"/>
      <point x="26" y="1035" type="line" smooth="no"/>
      <point x="172" y="1035" type="line" smooth="no"/>
      <point x="172" y="1076" type="line" smooth="yes"/>
      <point x="172" y="1327"/>
      <point x="290" y="1443"/>
      <point x="557" y="1443" type="curve" smooth="yes"/>
      <point x="631" y="1443"/>
      <point x="696" y="1436"/>
      <point x="751" y="1430" type="curve" smooth="no"/>
      <point x="751" y="1214" type="line" smooth="no"/>
      <point x="714" y="1218"/>
      <point x="660" y="1225"/>
      <point x="617" y="1225" type="curve" smooth="yes"/>
      <point x="522" y="1225"/>
      <point x="472" y="1189"/>
      <point x="472" y="1035" type="curve" smooth="no"/>
      <point x="908" y="1035" type="line" smooth="no"/>
      <point x="908" y="1076" type="line" smooth="yes"/>
      <point x="908" y="1327"/>
      <point x="1026" y="1443"/>
      <point x="1293" y="1443" type="curve" smooth="yes"/>
      <point x="1367" y="1443"/>
      <point x="1432" y="1436"/>
      <point x="1487" y="1430" type="curve" smooth="no"/>
      <point x="1487" y="1214" type="line" smooth="no"/>
      <point x="1450" y="1218"/>
      <point x="1396" y="1225"/>
      <point x="1353" y="1225" type="curve" smooth="yes"/>
      <point x="1258" y="1225"/>
      <point x="1208" y="1189"/>
      <point x="1208" y="1035" type="curve" smooth="no"/>
      <point x="1928" y="1035" type="line" smooth="no"/>
      <point x="1928" y="0" type="line" smooth="no"/>
      <point x="1619" y="0" type="line" smooth="no"/>
      <point x="1619" y="835" type="line" smooth="no"/>
      <point x="1217" y="835" type="line" smooth="no"/>
      <point x="1217" y="0" type="line" smooth="no"/>
      <point x="908" y="0" type="line" smooth="no"/>
      <point x="908" y="835" type="line" smooth="no"/>
      <point x="481" y="835" type="line" smooth="no"/>
      <point x="481" y="0" type="line" smooth="no"/>
    </contour>
  </outline>
</glyph>
